<?xml version="1.0" encoding="UTF-8" standalone="no"?>
<!DOCTYPE svg PUBLIC "-//W3C//DTD SVG 1.1//EN" "http://www.w3.org/Graphics/SVG/1.1/DTD/svg11.dtd">
<svg width="100%" height="100%" viewBox="0 0 1448 2048" version="1.1" xmlns="http://www.w3.org/2000/svg" xmlns:xlink="http://www.w3.org/1999/xlink" xml:space="preserve" xmlns:serif="http://www.serif.com/" style="fill-rule:evenodd;clip-rule:evenodd;stroke-linejoin:round;stroke-miterlimit:2;">
    <g transform="matrix(1,0,0,1,-522.23,-496.334)">
        <path d="M1245.84,2544.05C1245.79,2544.05 1245.74,2544.04 1245.69,2544.03C1239.76,2543.24 1229.11,2521.28 1212.19,2483.42C1166.07,2389.72 1075.55,2199.03 950.335,1993.56C949.563,1992.3 948.79,1991.03 947.993,1989.73C748.616,1697.3 522.23,1521.6 522.23,1220.01C522.23,1148.12 532.737,1078.66 552.303,1013.06L552.513,1012.36L552.781,1011.47C562.264,979.953 573.84,949.338 587.35,919.775L587.565,919.304L587.99,918.379C608.504,873.757 633.425,831.575 662.192,792.381C663.694,790.335 665.207,788.297 666.73,786.268C668.684,783.663 670.655,781.072 672.656,778.481L673.32,777.62L673.986,776.761L674.654,775.903L675.279,775.101C683.35,764.77 691.694,754.663 700.281,744.812L700.929,744.069C701.168,743.797 701.406,743.525 701.645,743.252L702.303,742.502C727.97,713.308 755.951,686.195 785.963,661.45L786.53,660.982L787.37,660.292L788.21,659.604C788.491,659.375 788.771,659.146 789.052,658.917L789.141,658.844C789.677,658.407 790.213,657.971 790.738,657.546L791.583,656.862C802.29,648.21 813.249,639.856 824.44,631.821L825.324,631.187L825.694,630.923C831.298,626.916 836.962,622.987 842.676,619.144L843.216,618.78L844.121,618.174C847.558,615.873 851.016,613.601 854.501,611.355L855.053,610.999C855.359,610.802 855.665,610.606 855.97,610.409L856.889,609.821L857.559,609.393C859.793,607.969 862.034,606.557 864.267,605.167L865.194,604.591C865.503,604.4 865.812,604.208 866.121,604.017L867.05,603.444L867.365,603.25C869.734,601.792 872.112,600.347 874.51,598.909C894.792,586.748 915.716,575.553 937.232,565.377L938.226,564.908L938.684,564.693C947.203,560.689 955.812,556.847 964.512,553.166C965.801,552.621 967.092,552.079 968.396,551.536L969.414,551.114C970.99,550.461 972.569,549.813 974.151,549.171C975.637,548.568 977.124,547.97 978.61,547.378L979.636,546.97C980.666,546.562 981.697,546.156 982.718,545.757L983.747,545.356L984.085,545.224C990.494,542.733 996.947,540.331 1003.44,538.02L1004.48,537.65C1004.83,537.527 1005.18,537.404 1005.52,537.281L1006.57,536.913L1007.62,536.547L1008.66,536.183C1012.85,534.729 1017.05,533.313 1021.28,531.932C1025.37,530.596 1029.47,529.296 1033.58,528.036C1045.72,524.309 1058,520.893 1070.41,517.798C1071.18,517.604 1071.96,517.412 1072.74,517.221L1073.83,516.954L1074.02,516.906C1075.41,516.567 1076.8,516.232 1078.19,515.903L1079.28,515.645C1079.72,515.54 1080.17,515.436 1080.61,515.332C1085.63,514.156 1090.67,513.034 1095.73,511.965L1096.83,511.734C1098.34,511.418 1099.84,511.106 1101.35,510.8L1102.35,510.599L1103.24,510.419C1104.42,510.183 1105.6,509.95 1106.77,509.721L1107.88,509.506C1109.36,509.22 1110.84,508.939 1112.31,508.662L1113.42,508.456C1113.79,508.387 1114.16,508.319 1114.54,508.251L1115.65,508.047L1116.09,507.967C1118.63,507.507 1121.17,507.06 1123.71,506.627C1125.4,506.339 1127.09,506.058 1128.78,505.783C1129.98,505.586 1131.19,505.393 1132.39,505.202L1133.52,505.026C1133.89,504.968 1134.26,504.91 1134.64,504.852L1135.76,504.679C1147.88,502.824 1160.1,501.27 1172.42,500.027C1174.55,499.812 1176.67,499.606 1178.81,499.41L1179.95,499.305C1181.48,499.167 1183,499.034 1184.53,498.906C1187.14,498.685 1189.77,498.479 1192.4,498.287C1194.75,498.114 1197.1,497.953 1199.46,497.804L1200.61,497.732C1204.84,497.47 1209.07,497.245 1213.32,497.056L1214.47,497.006C1215.84,496.948 1217.2,496.893 1218.57,496.842L1219.11,496.822L1220.27,496.781L1221.43,496.741C1221.82,496.729 1222.2,496.716 1222.59,496.703L1223.75,496.668C1225.95,496.601 1228.16,496.545 1230.37,496.498C1231.77,496.469 1233.18,496.443 1234.59,496.421L1235.39,496.409C1235.78,496.404 1236.17,496.399 1236.56,496.393L1237.73,496.38L1238.89,496.368C1241.19,496.346 1243.55,496.334 1245.91,496.334L1247.08,496.335C1249.07,496.338 1251.06,496.35 1253.09,496.369L1254.09,496.38L1254.92,496.389C1260.49,496.457 1266.05,496.588 1271.54,496.781C1272.12,496.801 1272.7,496.822 1273.25,496.842C1274.29,496.881 1275.33,496.922 1276.4,496.967L1277.34,497.006L1278.5,497.056C1282.72,497.244 1286.94,497.468 1291.2,497.732L1292.35,497.804C1295.04,497.974 1297.71,498.159 1300.4,498.359C1304.78,498.686 1309.14,499.051 1313.51,499.456L1314.15,499.516C1314.53,499.552 1314.91,499.588 1315.29,499.624L1315.92,499.685C1316.51,499.741 1317.1,499.798 1317.69,499.857L1318.71,499.958L1318.9,499.978C1330.33,501.125 1341.69,502.539 1353,504.218L1353.81,504.339C1354.18,504.395 1354.56,504.452 1354.93,504.508L1356.05,504.679C1358.66,505.078 1361.26,505.49 1363.9,505.923L1365.01,506.108L1365.49,506.187C1366.21,506.307 1366.93,506.428 1367.64,506.548C1369.55,506.873 1371.46,507.205 1373.39,507.548L1373.94,507.646C1374.31,507.712 1374.68,507.779 1375.05,507.846L1375.72,507.967C1378.02,508.383 1380.31,508.81 1382.59,509.247C1383.56,509.433 1384.53,509.62 1385.52,509.816C1386.56,510.018 1387.59,510.222 1388.57,510.419L1389.47,510.599L1389.96,510.699C1390.95,510.9 1391.95,511.103 1392.97,511.314C1394.61,511.654 1396.25,511.999 1397.9,512.352L1398.29,512.434L1398.64,512.511C1403.14,513.479 1407.63,514.49 1412.06,515.534L1412.53,515.645L1412.73,515.692C1415.57,516.362 1418.4,517.05 1421.25,517.759L1422.34,518.031C1425.7,518.874 1429.05,519.741 1432.44,520.644C1433.95,521.047 1435.46,521.456 1436.96,521.866C1448.26,524.954 1459.44,528.31 1470.53,531.932L1471.59,532.277C1472.17,532.467 1472.75,532.658 1473.28,532.836C1492.21,539.103 1510.8,546.132 1529,553.889C1529.52,554.11 1530.04,554.331 1530.52,554.537L1531.53,554.971C1533.82,555.958 1536.11,556.956 1538.37,557.957C1542.08,559.598 1545.77,561.27 1549.43,562.969C1550.67,563.544 1551.91,564.121 1553.13,564.693C1553.67,564.947 1554.21,565.202 1554.78,565.473C1562.99,569.358 1571.12,573.394 1579.14,577.564L1580.11,578.07C1580.94,578.505 1581.77,578.942 1582.61,579.382C1596.62,586.767 1610.35,594.597 1623.83,602.872L1624.76,603.444C1629.7,606.49 1634.61,609.595 1639.5,612.774L1640.42,613.369C1640.72,613.563 1641.01,613.757 1641.33,613.965L1642.24,614.562C1643.9,615.649 1645.55,616.742 1647.19,617.836L1647.69,618.174L1648.6,618.78C1648.9,618.983 1649.2,619.185 1649.5,619.388L1650.14,619.822C1651.12,620.485 1652.11,621.151 1653.11,621.833L1654,622.447C1654.86,623.034 1655.72,623.623 1656.6,624.232C1659.68,626.361 1662.74,628.513 1665.81,630.702L1666.49,631.187C1666.78,631.399 1667.08,631.61 1667.37,631.821L1667.93,632.221C1759.23,697.929 1834.63,784.364 1887.23,884.639C1888.13,886.344 1889.02,888.053 1889.89,889.757C1890.85,891.619 1891.8,893.485 1892.74,895.365L1892.84,895.559C1893.01,895.886 1893.17,896.212 1893.33,896.539L1893.73,897.331C1894.41,898.702 1895.1,900.074 1895.77,901.451L1896.26,902.435C1896.55,903.03 1896.84,903.625 1897.13,904.231C1897.94,905.901 1898.75,907.575 1899.55,909.245C1899.89,909.97 1900.24,910.696 1900.57,911.411L1901.01,912.329L1901.47,913.323C1902.48,915.466 1903.47,917.614 1904.46,919.775L1904.7,920.304C1904.86,920.637 1905.01,920.971 1905.16,921.304L1905.51,922.08C1906,923.153 1906.48,924.227 1906.97,925.314L1907.41,926.319C1908.15,927.971 1908.88,929.626 1909.6,931.285C1910.49,933.329 1911.38,935.377 1912.24,937.421L1912.67,938.435C1912.89,938.946 1913.11,939.457 1913.32,939.957L1913.53,940.466L1913.95,941.482C1915.09,944.191 1916.2,946.909 1917.31,949.642C1917.84,950.961 1918.37,952.283 1918.89,953.6C1919.59,955.356 1920.28,957.116 1920.96,958.88C1921.76,960.937 1922.55,962.999 1923.33,965.073C1924.24,967.484 1925.13,969.901 1926.02,972.332L1926.4,973.372C1926.88,974.689 1927.35,976.007 1927.82,977.337L1927.89,977.54L1928.27,978.583C1928.92,980.441 1929.58,982.303 1930.22,984.172C1935.02,998.094 1939.41,1012.21 1943.37,1026.5L1943.61,1027.36L1943.76,1027.9C1944.6,1030.95 1945.42,1034.02 1946.22,1037.08C1948.29,1045.01 1950.23,1053 1952.03,1061.04L1952.28,1062.14C1952.69,1063.96 1953.09,1065.79 1953.48,1067.63L1953.72,1068.73C1954.06,1070.32 1954.39,1071.91 1954.72,1073.51C1955.04,1075.09 1955.36,1076.68 1955.68,1078.27C1956.32,1081.47 1956.93,1084.68 1957.53,1087.9C1958.19,1091.47 1958.82,1095.06 1959.43,1098.67L1959.62,1099.78C1959.99,1101.96 1960.34,1104.14 1960.69,1106.32C1960.96,1108.04 1961.22,1109.76 1961.48,1111.48L1961.58,1112.11L1961.73,1113.13C1964.73,1133.34 1966.88,1153.81 1968.17,1174.52C1968.44,1178.81 1968.67,1183.1 1968.86,1187.4C1969.13,1193.57 1969.33,1199.77 1969.45,1206C1969.51,1209.23 1969.55,1212.45 1969.57,1215.67C1969.58,1217.13 1969.58,1218.57 1969.58,1220.01C1969.58,1521.6 1743.2,1697.3 1543.82,1989.73C1543.02,1991.03 1542.25,1992.3 1541.48,1993.56C1416.26,2199.03 1325.74,2389.72 1279.62,2483.42C1262.71,2521.27 1252.05,2543.24 1246.12,2544.03C1246.04,2544.04 1245.97,2544.05 1245.91,2544.05L1245.84,2544.05Z" style="fill:rgb(74,74,74);"/>
    </g>
</svg>
